# xmcd
#
# Track frame offsets:
#	150
#	34335
#	56748
#	83483
#	102724
#	123244
#	145335
#	161020
#	181948
#	207698
#	226718
#	248428
#	268373
#	287833
#
# Disc length: 4163 seconds
#
# Revision: 0
# Processed by: cddbd v1.5.1PL2 Copyright (c) Steve Scherf et al.
# Submitted via: dBpowerAMP V4.0
#
DISCID=cd10410e
DTITLE=Vu Quoc Viet - Binh Thuong Thoi
DYEAR=2005
DGENRE=Pop
TTITLE0=Binh Thuong Thoi
TTITLE1=Ve roi ra di
TTITLE2=Giac mo mua xuan
TTITLE3=Chia tay giua hen ho
TTITLE4=Cam on dem nay
TTITLE5=Nang noi chieu gio
TTITLE6=Ky uc loi thay
TTITLE7=Doi mat nhung
TTITLE8=Mot ngay kia
TTITLE9=Con do chut hong phai
TTITLE10=Cam on em Sai Gon
TTITLE11=Em da giet chet mot tinh yeu
TTITLE12=Tuy hoa em noi nho
TTITLE13=Vo cung
EXTD=Binh Thuong Thoi
EXTT0=
EXTT1=
EXTT2=
EXTT3=
EXTT4=
EXTT5=
EXTT6=
EXTT7=
EXTT8=
EXTT9=
EXTT10=
EXTT11=
EXTT12=
EXTT13=
PLAYORDER=
